<mxfile host="app.diagrams.net" agent="Mozilla/5.0 (Windows NT 10.0; Win64; x64) AppleWebKit/537.36 (KHTML, like Gecko) Chrome/140.0.0.0 Safari/537.36 Edg/140.0.0.0" version="28.2.4">
  <diagram name="Page-1" id="ueKssZfEJyt9948eInoF">
    <mxGraphModel dx="1001" dy="584" grid="1" gridSize="10" guides="1" tooltips="1" connect="1" arrows="1" fold="1" page="1" pageScale="1" pageWidth="850" pageHeight="1100" math="0" shadow="0">
      <root>
        <mxCell id="0" />
        <mxCell id="1" parent="0" />
        <mxCell id="JloxepOJBLuHW4acLYYV-1" value="Existing wall" style="rounded=0;whiteSpace=wrap;html=1;fillColor=#f5f5f5;fontColor=#333333;strokeColor=#666666;horizontal=0;" vertex="1" parent="1">
          <mxGeometry x="90" y="330" width="50" height="90" as="geometry" />
        </mxCell>
        <mxCell id="JloxepOJBLuHW4acLYYV-3" value="Plasterboard patch" style="rounded=0;whiteSpace=wrap;html=1;horizontal=0;" vertex="1" parent="1">
          <mxGeometry x="100" y="420" width="40" height="160" as="geometry" />
        </mxCell>
        <mxCell id="JloxepOJBLuHW4acLYYV-4" value="" style="rounded=0;whiteSpace=wrap;html=1;" vertex="1" parent="1">
          <mxGeometry x="240" y="530" height="60" as="geometry" />
        </mxCell>
        <mxCell id="JloxepOJBLuHW4acLYYV-6" value="shims&amp;nbsp;" style="rounded=0;whiteSpace=wrap;html=1;fillColor=#f8cecc;strokeColor=#b85450;horizontal=0;" vertex="1" parent="1">
          <mxGeometry x="90" y="530" width="10" height="35" as="geometry" />
        </mxCell>
        <mxCell id="JloxepOJBLuHW4acLYYV-8" value="shims&amp;nbsp;" style="rounded=0;whiteSpace=wrap;html=1;fillColor=#f8cecc;strokeColor=#b85450;horizontal=0;" vertex="1" parent="1">
          <mxGeometry x="90" y="440" width="10" height="35" as="geometry" />
        </mxCell>
        <mxCell id="JloxepOJBLuHW4acLYYV-9" value="wooden backing strips" style="rounded=0;whiteSpace=wrap;html=1;fillColor=#ffe6cc;strokeColor=#d79b00;horizontal=0;" vertex="1" parent="1">
          <mxGeometry x="80" y="375" width="10" height="250" as="geometry" />
        </mxCell>
        <mxCell id="JloxepOJBLuHW4acLYYV-12" value="Plasterboard patch" style="rounded=0;whiteSpace=wrap;html=1;horizontal=0;" vertex="1" parent="1">
          <mxGeometry x="210" y="420" width="60" height="160" as="geometry" />
        </mxCell>
        <mxCell id="JloxepOJBLuHW4acLYYV-13" value="shims&amp;nbsp;" style="rounded=0;whiteSpace=wrap;html=1;fillColor=#f8cecc;strokeColor=#b85450;horizontal=0;" vertex="1" parent="1">
          <mxGeometry x="210" y="590" width="10" height="35" as="geometry" />
        </mxCell>
        <mxCell id="JloxepOJBLuHW4acLYYV-14" value="shims&amp;nbsp;" style="rounded=0;whiteSpace=wrap;html=1;fillColor=#f8cecc;strokeColor=#b85450;horizontal=0;" vertex="1" parent="1">
          <mxGeometry x="210" y="375" width="10" height="35" as="geometry" />
        </mxCell>
        <mxCell id="JloxepOJBLuHW4acLYYV-15" value="wooden backing strips" style="rounded=0;whiteSpace=wrap;html=1;fillColor=#ffe6cc;strokeColor=#d79b00;horizontal=0;" vertex="1" parent="1">
          <mxGeometry x="200" y="375" width="10" height="250" as="geometry" />
        </mxCell>
        <mxCell id="JloxepOJBLuHW4acLYYV-18" value="Existing wall" style="rounded=0;whiteSpace=wrap;html=1;fillColor=#f5f5f5;fontColor=#333333;strokeColor=#666666;horizontal=0;" vertex="1" parent="1">
          <mxGeometry x="220" y="330" width="50" height="90" as="geometry" />
        </mxCell>
        <mxCell id="JloxepOJBLuHW4acLYYV-19" value="Existing wall" style="rounded=0;whiteSpace=wrap;html=1;fillColor=#f5f5f5;fontColor=#333333;strokeColor=#666666;horizontal=0;" vertex="1" parent="1">
          <mxGeometry x="220" y="580" width="50" height="90" as="geometry" />
        </mxCell>
        <mxCell id="JloxepOJBLuHW4acLYYV-20" value="Existing wall" style="rounded=0;whiteSpace=wrap;html=1;fillColor=#f5f5f5;fontColor=#333333;strokeColor=#666666;horizontal=0;" vertex="1" parent="1">
          <mxGeometry x="90" y="580" width="50" height="90" as="geometry" />
        </mxCell>
      </root>
    </mxGraphModel>
  </diagram>
</mxfile>
